<svg xmlns="http://www.w3.org/2000/svg" viewBox="0 0 380 112" width="380" height="112" shape-rendering="crispEdges" role="img" aria-label="Viktor — a quiet daily companion for your health">
  <rect x="22" y="14.0" width="6" height="6" fill="#3E7A63"/>
    <rect x="46" y="14.0" width="6" height="6" fill="#3E7A63"/>
    <rect x="22" y="20.0" width="36" height="6" fill="#3E7A63"/>
    <rect x="22" y="26.0" width="42" height="6" fill="#3E7A63"/>
    <rect x="22" y="32.0" width="12" height="6" fill="#3E7A63"/>
    <rect x="34" y="32.0" width="18" height="6" fill="#FFFFFF"/>
    <rect x="52" y="32.0" width="12" height="6" fill="#3E7A63"/>
    <rect x="64" y="32.0" width="12" height="6" fill="#B87A2E"/>
    <rect x="22" y="38.0" width="12" height="6" fill="#3E7A63"/>
    <rect x="34" y="38.0" width="6" height="6" fill="#FFFFFF"/>
    <rect x="40" y="38.0" width="6" height="6" fill="#0F1512"/>
    <rect x="46" y="38.0" width="6" height="6" fill="#FFFFFF"/>
    <rect x="52" y="38.0" width="12" height="6" fill="#3E7A63"/>
    <rect x="64" y="38.0" width="24" height="6" fill="#B87A2E"/>
    <rect x="22" y="44.0" width="12" height="6" fill="#3E7A63"/>
    <rect x="34" y="44.0" width="18" height="6" fill="#FFFFFF"/>
    <rect x="52" y="44.0" width="12" height="6" fill="#3E7A63"/>
    <rect x="64" y="44.0" width="12" height="6" fill="#B87A2E"/>
    <rect x="28" y="50.0" width="6" height="6" fill="#3E7A63"/>
    <rect x="34" y="50.0" width="18" height="6" fill="#FFFFFF"/>
    <rect x="52" y="50.0" width="12" height="6" fill="#3E7A63"/>
    <rect x="28" y="56.0" width="6" height="6" fill="#3E7A63"/>
    <rect x="34" y="56.0" width="18" height="6" fill="#FFFFFF"/>
    <rect x="52" y="56.0" width="24" height="6" fill="#3E7A63"/>
    <rect x="22" y="62.0" width="12" height="6" fill="#3E7A63"/>
    <rect x="34" y="62.0" width="18" height="6" fill="#FFFFFF"/>
    <rect x="52" y="62.0" width="42" height="6" fill="#3E7A63"/>
    <rect x="22" y="68.0" width="12" height="6" fill="#3E7A63"/>
    <rect x="34" y="68.0" width="18" height="6" fill="#FFFFFF"/>
    <rect x="52" y="68.0" width="48" height="6" fill="#3E7A63"/>
    <rect x="22" y="74.0" width="18" height="6" fill="#3E7A63"/>
    <rect x="40" y="74.0" width="12" height="6" fill="#FFFFFF"/>
    <rect x="52" y="74.0" width="48" height="6" fill="#3E7A63"/>
    <rect x="28" y="80.0" width="66" height="6" fill="#3E7A63"/>
    <rect x="34" y="86.0" width="48" height="6" fill="#3E7A63"/>
    <rect x="40" y="92.0" width="12" height="6" fill="#B87A2E"/>
    <rect x="64" y="92.0" width="12" height="6" fill="#B87A2E"/>
  <g shape-rendering="auto" font-family="ui-monospace, SFMono-Regular, Menlo, Consolas, monospace">
    <text x="122" y="60" fill="#0F1512" font-size="32" letter-spacing="7">VIKTOR</text>
    <text x="124" y="82" fill="#3E7A63" font-size="12" letter-spacing="1.7" opacity="0.9">quiet daily health</text>
  </g>
</svg>
